<svg xmlns="http://www.w3.org/2000/svg" version="1.1" xmlns:xlink="http://www.w3.org/1999/xlink" xmlns:svgjs="http://svgjs.dev/svgjs" width="100%" height="100%" viewBox="0 0 1000 600"><rect width="1000" height="600" x="0" y="0" fill="#96351e"/><g><circle r="166.66666666666666" cx="448.02213541666663" cy="470.2444237607433" fill="#dbb98f" transform="matrix(0.4442777709926132,0,0,0.4442777709926131,0,91.08086081402828)"/><path d="M401.589451621943 481.0610576879718L401.589451621943 481.0610576879718Q411.3029182459667 487.47939551623523 421.1883046332474 495.7315441525739L421.1883046332474 495.7315441525739L417.06223031507807 521.7200816982656Q389.01065561030174 539.6570436647518 347.74991242860824 543.9836910400544L347.74991242860824 543.9836910400544Q336.00206193937606 545.2444359706061 325.4576497929433 545.2444359706061L325.4576497929433 545.2444359706061L302.16252187161217 524.1842649716167Q328.55220553157034 465.81750534584614 364.6553558155521 422.06392559692534L364.6553558155521 422.06392559692534Q348.7814310081506 419.80031538070745 339.49776379226955 419.80031538070745L339.49776379226955 419.80031538070745L348.3802848938841 395.2444425288246Q373.1367308029002 396.27596110836697 396.0307126099649 400.08684919389833Q418.9246944170295 403.9263905733059 440.7871576445518 413.4106308463202L440.7871576445518 413.4106308463202L456.46050939482006 448.28168949362646Q434.3974731101646 471.3762443578243 401.589451621943 481.0610576879718ZM367.5493384970459 466.8490239253885L367.5493384970459 466.8490239253885Q388.17971008789266 461.89200408481 398.494895883316 456.9349842442316L398.494895883316 456.9349842442316Q414.9991931559934 449.31320807316877 425.94475141669267 439.5997414491451L425.94475141669267 439.5997414491451Q404.2828612463036 428.68283648232205 370.2427481214064 423.0954441764677L370.2427481214064 423.0954441764677L388.6095094960353 437.96650369820304Q373.33730386003344 457.7659297666407 367.5493384970459 466.8490239253885ZM338.265672155594 517.1642079719536L338.265672155594 517.1642079719536Q371.2742667009488 515.932116335278 392.93615687133786 504.18426584604583L392.93615687133786 504.18426584604583Q385.7155268145415 495.93211720970714 367.1481923827794 487.2501691652258L367.1481923827794 487.2501691652258Q361.9905994850677 484.98655894900793 357.2341527016225 482.92352178992326L357.2341527016225 482.92352178992326Q346.3172477347995 500.6599106992762 338.265672155594 517.1642079719536ZM467.20549459838617 544.6140635053303L443.6811403260456 522.9521733349411Q457.49202797436243 492.40776206293754 468.4375862350617 474.4708000964513L468.4375862350617 474.4708000964513Q486.17397514441467 444.95790740399 505.3716820414526 422.2644986540586L505.3716820414526 422.2644986540586Q491.1309949849931 419.80031538070745 479.78429061002737 419.80031538070745L479.78429061002737 419.80031538070745L488.6668117116419 395.2444425288246Q527.4347183261082 396.4765341655002 556.1166654961603 405.35905526711474L556.1166654961603 405.35905526711474Q566.8329974058502 408.654184062875 577.7785556665494 413.4106308463202L577.7785556665494 413.4106308463202L593.8817068249602 449.513781130302Q579.6410197685009 469.7143533130061 557.4633703083407 484.4707996592367Q535.2857208481803 499.2272460054674 509.4977563596219 506.2473030051305L509.4977563596219 506.2473030051305L495.8874417684383 486.8490230509594Q479.78429061002737 513.8690791761933 467.20549459838617 544.6140635053303L467.20549459838617 544.6140635053303ZM498.98199750706533 481.69143015324767L498.98199750706533 481.69143015324767Q542.5063509049767 466.6197975743791 564.368814132499 440.23011391442094L564.368814132499 440.23011391442094Q544.7699611211947 429.91492811899764 511.7613665758399 423.29601723360094L511.7613665758399 423.29601723360094L529.4977554851928 437.96650369820304Q512.9934582125154 458.79744834618305 498.98199750706533 481.69143015324767Z " fill="#96351e" transform="matrix(0.4442777709926132,0,0,0.4442777709926131,0,91.08086081402828)"/><path d="M768.896291035224 461.1145396302401L768.896291035224 461.1145396302401Q775.8203104128881 465.68970287683817 782.8668788060861 471.5720556224644L782.8668788060861 471.5720556224644L779.925702433273 490.0973818040024Q759.9297880653285 502.88332909137046 730.5180243371976 505.9674793156397L730.5180243371976 505.9674793156397Q722.1438416090491 506.8661720962215 714.627501989638 506.8661720962215L714.627501989638 506.8661720962215L698.0221103847973 491.85391769332136Q716.8333842692477 450.24852691956943 742.5686775313623 419.05980246619725L742.5686775313623 419.05980246619725Q731.2533184304009 417.44624042833453 724.6356715915714 417.44624042833453L724.6356715915714 417.44624042833453L730.9673707274885 399.94215604291213Q748.614428964367 400.6774501361154 764.9338728662952 403.3939533137831Q781.2533167682234 406.13088132737306 796.8374665769484 412.8915020176587L796.8374665769484 412.8915020176587L808.0098518264537 437.7485273351138Q792.2827281662726 454.2109450884982 768.896291035224 461.1145396302401ZM744.631585959516 450.98382101277275L744.631585959516 450.98382101277275Q759.3374678235814 447.45032439821256 766.6904087556142 443.91682778365237L766.6904087556142 443.91682778365237Q778.4551142468665 438.48382142831707 786.2574015691902 431.55980205065293L786.2574015691902 431.55980205065293Q770.8162256119215 423.7779395642516 746.5515205362134 419.7950965594005L746.5515205362134 419.7950965594005L759.6438403624161 430.39558640308104Q748.7574028158232 444.50914802539944 744.631585959516 450.98382101277275ZM723.7574036469119 486.8498328923546L723.7574036469119 486.8498328923546Q747.2868146294167 485.97156494769513 762.7279905866853 477.5973822195468L762.7279905866853 477.5973822195468Q757.5809319342625 471.7150294739206 744.3456382566036 465.52630418945967L744.3456382566036 465.52630418945967Q740.6691677905872 463.91274215159694 737.2786450274832 462.4421539651904L737.2786450274832 462.4421539651904Q729.496782541082 475.0851274011022 723.7574036469119 486.8498328923546ZM859.9297847409737 505.39558390981495L848.6144256400122 492.7321856379808Q836.992694000216 501.8620872952548 821.8374657458596 505.9674793156397L821.8374657458596 505.9674793156397L803.598087267234 489.05571517196444Q803.598087267234 477.4544083680906 807.1315838817942 466.26159828266293Q810.6650804963543 455.08921303315765 817.5686750380962 446.12271006326216Q824.4926944157604 437.15620709336673 834.705112376917 431.1921550040513Q844.9379551739958 425.2485277506582 858.316222703111 424.063887267164L858.316222703111 424.063887267164L868.0180197662097 438.91274298268564Q869.7745556555286 436.1145404613288 875.5139345496987 429.2109459195869L875.5139345496987 429.2109459195869L889.9338687108517 441.5679716525864Q875.3709606982425 460.54264422441526 865.8121374865999 482.1521206302226L865.8121374865999 482.1521206302226L865.3627910963089 482.438068333135Q873.9003725118359 480.2321860535252 885.3791303001759 474.8808790418791Q896.8374632525936 469.50914719431074 899.9216134768628 467.895585156448L899.9216134768628 467.895585156448L903.1691623885106 482.7444408719697Q894.4886071215276 489.05571517196444 874.3497189021268 499.0638847738979L874.3497189021268 499.0638847738979Q866.404457728347 503.02630294282665 859.9297847409737 505.39558390981495L859.9297847409737 505.39558390981495ZM824.1863218769256 484.8073493001233L824.1863218769256 484.8073493001233Q839.9338703730291 480.53855859235983 852.8627915118534 463.91274215159694L852.8627915118534 463.91274215159694Q856.7026606652482 455.53855942344853 858.6021704060233 443.0385598389929L858.6021704060233 443.0385598389929Q843.4673669875892 444.50914802539944 833.7451450885683 456.416827368108L833.7451450885683 456.416827368108Q824.1863218769256 468.1815328593604 824.1863218769256 484.8073493001233ZM904.7827244263734 436.1145404613288L904.7827244263734 436.1145404613288Q911.8497176554937 426.5557172496862 922.4297826632519 416.2615999448404L922.4297826632519 416.2615999448404L936.1144227312018 426.8620897885209Q934.4804358574166 433.62271047880654 933.3162202098449 436.70686070307585L933.3162202098449 436.70686070307585Q952.2908927816737 434.6439522749222 960.6650755098221 432.6014686826909Q969.0392582379704 430.53856025453723 975.2279835224315 428.9249982166745L975.2279835224315 428.9249982166745L979.3333755428164 446.40865776617454Q973.308048945734 448.1856184914158 966.6904021069046 449.51323282636616L966.6904021069046 449.51323282636616Q956.5392586535149 465.52630418945967 949.7786379632292 483.47973496517295L949.7786379632292 483.47973496517295Q974.1863168903934 475.0851274011022 985.8080485301896 467.895585156448L985.8080485301896 467.895585156448L989.0555974418373 482.7444408719697Q975.5139312253439 491.567969990409 953.5980822807018 500.8204206632168L953.5980822807018 500.8204206632168Q946.5515138875037 503.7615970360299 940.0768409001305 505.9674793156397L940.0768409001305 505.9674793156397L924.4926910914055 490.3833295069148Q934.0515143030482 468.4674805622728 944.937951849641 452.5973830506355L944.937951849641 452.5973830506355Q934.6438345447951 453.4756509952949 926.6985733710153 453.7615986982073L926.6985733710153 453.7615986982073Q924.3497172399493 458.17336325742696 914.0555999351036 475.8204214943055L914.0555999351036 475.8204214943055L903.1691623885106 482.7444408719697L889.1985746176484 474.51323199527747Q901.3922016632694 461.2779383176186 905.6609923710328 455.9674809778171Q909.9297830787963 450.677448473938 913.0139333030656 446.8580041564655L913.0139333030656 446.8580041564655Q908.7451425953021 442.16029189433345 904.7827244263734 436.1145404613288ZM1013.749224071914 450.8204223253942L1013.749224071914 450.8204223253942Q1028.4551059359794 439.21911552152034 1044.202654432083 430.82450795744967L1044.202654432083 430.82450795744967L1061.9926865204177 444.7950957283118Q1057.1315755709072 465.68970287683817 1044.9379485252862 482.438068333135L1044.9379485252862 482.438068333135Q1059.6438303893517 477.4544083680906 1078.312130422346 467.895585156448L1078.312130422346 467.895585156448L1081.3962806466152 482.7444408719697Q1075.3709540495329 486.7068590408984 1063.0139283165333 492.8955843253593L1063.0139283165333 492.8955843253593Q1041.8333734650946 503.33267548166134 1033.7451384398587 505.9674793156397L1033.7451384398587 505.9674793156397L1015.5261847971553 493.0385581768155Q1024.3497139155945 482.438068333135 1030.2933411689878 472.0826765205222Q1036.2573932583032 461.7068598719871 1038.013929147622 453.9249973855858L1038.013929147622 453.9249973855858Q1019.2026552631717 462.7485265040251 1002.1274924321178 474.51323199527747L1002.1274924321178 474.51323199527747Q995.3668717418323 490.68970204574947 990.6691594797 505.9674793156397L990.6691594797 505.9674793156397L973.1650750942779 494.65212021467823Q978.1691598952445 477.74035607100296 988.7492249030026 456.55980121956424L988.7492249030026 456.55980121956424Q998.3080481146453 437.5851286477353 1008.7451392709473 424.5132336574549L1008.7451392709473 424.5132336574549L1023.6144198223913 435.23627251666926Q1018.4673611699684 442.16029189433345 1013.749224071914 450.8204223253942ZM1107.1315739087297 473.6145392146957L1107.1315739087297 473.6145392146957Q1100.227979366988 473.6145392146957 1096.245136362137 472.59329741858005L1096.245136362137 472.59329741858005Q1093.8962802310707 478.33267631275004 1093.3039599893236 486.8498328923546L1093.3039599893236 486.8498328923546Q1118.6103316970698 485.37924470594805 1142.1397426795745 475.5344737913931L1142.1397426795745 475.5344737913931Q1150.0850038533542 472.30734971566767 1157.4379447853871 467.895585156448L1157.4379447853871 467.895585156448L1160.5220950096564 482.7444408719697Q1146.8374549417065 491.4249961389528 1128.1691549087122 498.04264297778224L1128.1691549087122 498.04264297778224Q1108.316214392224 505.08921137098025 1090.6691561553453 505.9674793156397L1090.6691561553453 505.9674793156397L1072.4297776767198 489.05571517196444Q1072.4297776767198 468.7738531011075 1083.4591890747688 452.0050628088884L1083.4591890747688 452.0050628088884Q1091.4044502485485 440.3833311690922 1101.473894358249 433.62271047880654Q1111.5433384679495 426.8620897885209 1120.8162139766796 423.9209134157078L1120.8162139766796 423.9209134157078L1145.6732392941346 444.50914802539944Q1141.9967688281183 459.807350131212 1131.7026515232724 466.7109446729538Q1121.4085342184267 473.6145392146957 1107.1315739087297 473.6145392146957ZM1102.4338616465977 459.3580037409211L1102.4338616465977 459.3580037409211Q1110.9510182262025 459.3580037409211 1117.2827173621195 454.6602914787891L1117.2827173621195 454.6602914787891Q1124.635658294152 449.0638864360753 1124.635658294152 439.05571683414183L1124.635658294152 439.05571683414183Q1109.7868025786306 447.14395185937786 1102.4338616465977 459.3580037409211ZM1213.1568971814572 480.39558474090364L1213.1568971814572 480.39558474090364Q1236.9926807027969 473.4715653632395 1246.5515039144393 467.895585156448L1246.5515039144393 467.895585156448L1249.7786279901648 482.7444408719697Q1238.0139224989125 491.567969990409 1223.4510144863032 498.7779370709855L1223.4510144863032 498.7779370709855Q1218.3039558338803 501.4127409049639 1214.4845115164076 502.74035523991427L1214.4845115164076 502.74035523991427L1207.274544435831 494.7950940661344Q1203.1691524154462 513.483818935051 1197.5727473727325 524.6562041845563L1197.5727473727325 524.6562041845563Q1192.2827148688534 534.9503214894021 1182.5809178057546 545.2444387942479L1182.5809178057546 545.2444387942479Q1166.4044477552825 544.795092403957 1147.1438274805412 540.0973801418249L1147.1438274805412 540.0973801418249Q1141.0980760475366 538.6267919554184 1136.1144160824922 536.8498312301772L1136.1144160824922 536.8498312301772L1135.2157233019104 512.5851261544692Q1145.0809190523876 503.9249957234084 1157.1315722465524 497.8792442904037L1157.1315722465524 497.8792442904037L1148.614415666948 491.7109438418652Q1149.9216051659757 472.30734971566767 1168.7533038863485 441.71094550404257L1168.7533038863485 441.71094550404257Q1174.6356566319748 432.1521222924 1181.702649861095 422.59329908075745L1181.702649861095 422.59329908075745L1196.9804271309854 434.2150307205536Q1171.2451338688707 470.3874151389702 1169.2026502766394 487.4421531341017L1169.2026502766394 487.4421531341017Q1176.9845127630406 486.2779374865298 1181.702649861095 483.76568266808533L1181.702649861095 483.76568266808533Q1191.0980743853593 478.7615978671186 1196.694479428073 469.20277465547605L1196.694479428073 469.20277465547605Q1209.3374528639847 443.91682778365237 1219.3456224659183 429.80326616133397L1219.3456224659183 429.80326616133397L1234.9297722746433 441.99689320695495Q1220.50983811349 464.05571600305313 1213.1568971814572 480.39558474090364ZM1150.0850038533542 523.3285898496059L1150.0850038533542 523.3285898496059Q1163.6062452339256 526.4127400738752 1172.4297743523648 526.7191126127099L1172.4297743523648 526.7191126127099Q1181.9885975640075 518.6308775874738 1187.4216039193427 501.26976705350773L1187.4216039193427 501.26976705350773Q1163.4632713824694 510.97156411660643 1150.0850038533542 523.3285898496059ZM1271.10215669306 442.16029189433345L1255.5180068843347 433.62271047880654Q1269.7745423581093 410.23627334775796 1277.7198035318893 395.24444378078016L1277.7198035318893 395.24444378078016L1294.4885938241082 404.66029314096653Q1285.5220908542128 420.5303906526038 1280.0073851551883 428.761599529296Q1274.4926794561638 437.01323324191054 1271.10215669306 442.16029189433345L1271.10215669306 442.16029189433345ZM1303.9044431842947 507.15211979913386L1303.9044431842947 507.15211979913386Q1293.303953340614 500.08512657001353 1285.3791170027566 493.7738522700188L1285.3791170027566 493.7738522700188Q1278.1691499221802 487.4421531341017 1269.6315685066534 478.6186240156624L1269.6315685066534 478.6186240156624L1284.7867967610096 467.895585156448Q1295.0809140658553 478.6186240156624 1299.9216001794434 482.23381997391186Q1304.7827111289541 485.82859109623894 1308.6021554464267 488.32042107876117L1308.6021554464267 488.32042107876117Q1312.7279723027339 487.8914995243926 1321.9804229755418 485.54264339332656L1321.9804229755418 485.54264339332656L1297.5727440483774 462.4421539651904Q1294.2026461211958 458.9086573506302 1292.2827115444984 456.1308796651956L1292.2827115444984 456.1308796651956Q1297.8791165872121 446.12271006326216 1311.5433318192397 435.37924636812545L1311.5433318192397 435.37924636812545Q1324.3497039425301 425.3915016021144 1335.951010746404 422.0009788390103L1335.951010746404 422.0009788390103L1359.4804217289088 440.9756514108393Q1356.9885917463864 450.98382101277275 1347.7157162376564 467.44623876615714L1347.7157162376564 467.44623876615714L1331.9885925774752 455.6815332749047Q1335.0727428017447 451.12679486422894 1337.4215989328106 445.8367623603498Q1339.790879899799 440.52630502054836 1340.2198014541675 438.76976913122945L1340.2198014541675 438.76976913122945Q1331.9885925774752 441.85391935549876 1323.308037310492 449.94215438073473L1323.308037310492 449.94215438073473Q1320.2238870862227 452.88333075354785 1317.7320571037005 455.9674809778171L1317.7320571037005 455.9674809778171Q1320.5098347891353 460.23627168558056 1326.2492136833055 464.9544087836349L1326.2492136833055 464.9544087836349Q1335.951010746404 473.3285915117833 1342.5686575852335 479.3539181088657L1342.5686575852335 479.3539181088657Q1358.9085263230838 473.7779379020742 1370.2238854240454 467.895585156448L1370.2238854240454 467.895585156448L1373.308035648315 482.7444408719697Q1361.5433301570622 491.1186236001181 1340.2198014541675 498.3285906806946L1340.2198014541675 498.3285906806946Q1320.5098347891353 504.94623751952406 1303.9044431842947 507.15211979913386ZM1429.7827069735106 506.4168257059306L1413.0139166812917 490.9756497486619Q1422.8791124317688 469.20277465547605 1430.66097491817 456.416827368108L1430.66097491817 456.416827368108Q1443.3039483540817 435.37924636812545 1456.9885884220319 419.20277631765344L1456.9885884220319 419.20277631765344Q1446.837444968642 417.44624042833453 1438.749209943406 417.44624042833453L1438.749209943406 417.44624042833453L1445.0809090793232 399.94215604291213Q1472.7157120822128 400.8204239875716 1493.1609728404485 407.1521231234887L1493.1609728404485 407.1521231234887Q1500.8202863113158 409.5009792545547 1508.602148797717 412.8915020176587L1508.602148797717 412.8915020176587L1520.080906586057 438.62679527977326Q1509.9297631326674 453.02630460500404 1494.1209401287972 463.5450951049953Q1478.3121171249268 474.0638856049866 1459.929764794845 479.0679704059533L1459.929764794845 479.0679704059533L1450.2279677317463 465.2403564865473Q1438.749209943406 484.5009767612886 1429.7827069735106 506.4168257059306L1429.7827069735106 506.4168257059306ZM1452.433850011356 461.56388602053096L1452.433850011356 461.56388602053096Q1483.4591757773496 450.8204223253942 1499.0433255860746 432.0091484409438L1499.0433255860746 432.0091484409438Q1485.0727378152123 424.6562075089111 1461.5433268327076 419.9380704108567L1461.5433268327076 419.9380704108567L1474.1863002686193 430.39558640308104Q1462.421594777367 445.2444421186027 1452.433850011356 461.56388602053096ZM1527.43384751809 436.1145404613288L1527.43384751809 436.1145404613288Q1534.480415911288 426.5557172496862 1545.0809057549684 416.2615999448404L1545.0809057549684 416.2615999448404L1558.7451209869957 426.8620897885209Q1557.131558949133 433.62271047880654 1555.9673433015612 436.70686070307585L1555.9673433015612 436.70686070307585Q1574.921591037468 434.6439522749222 1583.3161986015386 432.6014686826909Q1591.690381329687 430.53856025453723 1597.8791066141478 428.9249982166745L1597.8791066141478 428.9249982166745L1601.9844986345327 446.40865776617454Q1595.9591720374503 448.1856184914158 1589.341525198621 449.51323282636616L1589.341525198621 449.51323282636616Q1579.1903817452314 465.52630418945967 1572.4297610549459 483.47973496517295L1572.4297610549459 483.47973496517295Q1596.8374399821098 475.0851274011022 1608.459171621906 467.895585156448L1608.459171621906 467.895585156448L1611.6862956976315 482.7444408719697Q1598.1650543170601 491.567969990409 1576.2492053724184 500.8204206632168L1576.2492053724184 500.8204206632168Q1569.2026369792204 503.7615970360299 1562.727963991847 505.9674793156397L1562.727963991847 505.9674793156397L1547.143814183122 490.3833295069148Q1556.7026373947645 468.4674805622728 1567.5686501054352 452.5973830506355L1567.5686501054352 452.5973830506355Q1557.2745328005892 453.4756509952949 1549.3496964627318 453.7615986982073L1549.3496964627318 453.7615986982073Q1546.9804154957435 458.17336325742696 1536.6862981908978 475.8204214943055L1536.6862981908978 475.8204214943055L1525.820285480227 482.7444408719697L1511.8496977093648 474.51323199527747Q1524.0433247549859 461.2779383176186 1528.3121154627493 455.9674809778171Q1532.580906170513 450.677448473938 1535.6650563947821 446.8580041564655L1535.6650563947821 446.8580041564655Q1531.3962656870187 442.16029189433345 1527.43384751809 436.1145404613288ZM1667.875019319915 493.4674797311841L1660.8080260907948 485.37924470594805Q1646.6944644684766 501.7191134437986 1623.6143998762625 505.9674793156397L1623.6143998762625 505.9674793156397L1602.7197927277361 488.4838197661397Q1602.7197927277361 474.34983330789896 1608.3161977704497 460.54264422441526L1608.3161977704497 460.54264422441526Q1615.3627661636478 443.1815336904491 1631.53923621412 432.4380699953124L1631.53923621412 432.4380699953124Q1642.7320462995476 424.9421552118235 1655.8039412898281 423.1856193225045L1655.8039412898281 423.1856193225045L1679.1903784208764 443.1815336904491Q1676.6985484383542 459.0720560380087 1670.673221841272 470.83676152926114L1670.673221841272 470.83676152926114Q1681.25328684903 470.244441287514 1694.6315543781452 467.895585156448L1694.6315543781452 467.895585156448L1697.8791032897932 482.7444408719697Q1678.7614568665078 490.68970204574947 1667.875019319915 493.4674797311841L1667.875019319915 493.4674797311841ZM1622.4297593927683 485.97156494769513L1622.4297593927683 485.97156494769513Q1639.1985496849873 482.1521206302226 1650.3709349344927 465.2403564865473L1650.3709349344927 465.2403564865473Q1655.0686471966249 458.03038940597077 1657.1315556247785 451.4127425671413Q1659.194464052932 444.7950957283118 1659.3374379043883 440.8326775593831L1659.3374379043883 440.8326775593831Q1647.4297585616798 442.44623959724584 1636.6862948665428 453.4756509952949L1636.6862948665428 453.4756509952949Q1623.3080273374278 467.16029106324476 1622.4297593927683 485.97156494769513ZM1729.6397231489902 418.7738547632849L1729.6397231489902 418.7738547632849Q1726.2492003858863 415.24035814872474 1726.2492003858863 410.23627334775796L1726.2492003858863 410.23627334775796Q1726.2492003858863 405.2321885467913 1729.7009976567567 401.78039127592035Q1733.1732197635504 398.3285940050494 1738.1568797285947 398.3285940050494L1738.1568797285947 398.3285940050494Q1743.1609645295614 398.3285940050494 1746.6127618004323 401.78039127592035Q1750.0849839072255 405.2321885467913 1750.0849839072255 410.23627334775796L1750.0849839072255 410.23627334775796Q1750.0849839072255 415.24035814872474 1746.6127618004323 418.6921554195956Q1743.1609645295614 422.1439526904665 1738.1568797285947 422.1439526904665L1738.1568797285947 422.1439526904665Q1733.1732197635504 422.1439526904665 1729.6397231489902 418.7738547632849ZM1701.5555737558095 504.6602898166117L1697.5727307509585 500.8204206632168Q1689.3415218742664 518.6308775874738 1680.9673391461176 545.2444387942479L1680.9673391461176 545.2444387942479L1663.8921763150638 534.5009750991112Q1681.9885809422333 478.47565016420623 1710.665050577161 436.84983455453204L1710.665050577161 436.84983455453204Q1714.9338412849245 430.6815341059934 1718.753285602397 425.82042315648295L1718.753285602397 425.82042315648295L1733.3161936150066 436.56388685161966Q1715.6691353781277 460.8285919273277 1706.1103121664853 483.76568266808533L1706.1103121664853 483.76568266808533Q1716.996749713078 480.53855859235983 1726.0245271907404 476.3514672282856Q1735.072729504325 472.14395102828917 1743.467337068396 467.895585156448L1743.467337068396 467.895585156448L1746.5514872926653 482.7444408719697Q1733.3161936150066 491.4249961389528 1714.4844948946336 499.65620501564496L1714.4844948946336 499.65620501564496Q1708.0098219072604 502.4544075370019 1701.5555737558095 504.6602898166117L1701.5555737558095 504.6602898166117ZM1772.28678055478 473.6145392146957L1772.28678055478 473.6145392146957Q1765.362761177116 473.6145392146957 1761.4003430081868 472.59329741858005L1761.4003430081868 472.59329741858005Q1759.0514868771209 478.33267631275004 1758.4591666353738 486.8498328923546L1758.4591666353738 486.8498328923546Q1783.7451135071976 485.37924470594805 1807.2745244897021 475.5344737913931L1807.2745244897021 475.5344737913931Q1815.2197856634818 472.30734971566767 1822.572726595515 467.895585156448L1822.572726595515 467.895585156448L1825.6568768197842 482.7444408719697Q1811.9926615877564 491.4249961389528 1793.30393671884 498.04264297778224L1793.30393671884 498.04264297778224Q1773.4509962023515 505.08921137098025 1755.803937965473 505.9674793156397L1755.803937965473 505.9674793156397L1737.58498432277 489.05571517196444Q1737.58498432277 468.7738531011075 1748.614395720819 452.0050628088884L1748.614395720819 452.0050628088884Q1756.5392320586764 440.3833311690922 1766.6291010042994 433.62271047880654Q1776.6985451139997 426.8620897885209 1785.9509957868074 423.9209134157078L1785.9509957868074 423.9209134157078L1810.8080211042623 444.50914802539944Q1807.131550638246 459.807350131212 1796.8374333334002 466.7109446729538Q1786.5433160285545 473.6145392146957 1772.28678055478 473.6145392146957ZM1767.5686434567253 459.3580037409211L1767.5686434567253 459.3580037409211Q1776.1062248722526 459.3580037409211 1782.4379240081696 454.6602914787891L1782.4379240081696 454.6602914787891Q1789.7908649402023 449.0638864360753 1789.7908649402023 439.05571683414183L1789.7908649402023 439.05571683414183Q1774.921584388758 447.14395185937786 1767.5686434567253 459.3580037409211ZM1838.0139025527835 486.8498328923546L1838.0139025527835 486.8498328923546Q1874.043313119744 482.1521206302226 1900.6568743265182 467.895585156448L1900.6568743265182 467.895585156448L1903.904423238166 482.7444408719697Q1881.2532802003204 497.0009763457442 1853.5980523615083 503.47564933311753L1853.5980523615083 503.47564933311753Q1844.3456016887005 505.53855776127114 1835.3790987188052 505.9674793156397L1835.3790987188052 505.9674793156397L1817.1397202401793 489.05571517196444Q1817.1397202401793 478.6186240156624 1818.46733457513 472.87924512149243L1818.46733457513 472.87924512149243Q1824.1862886333777 448.6145400457844 1846.5514839683108 433.76568433026273L1846.5514839683108 433.76568433026273Q1856.5392287343218 427.1480374914333 1866.8333460391675 423.9209134157078L1866.8333460391675 423.9209134157078L1890.362757021672 441.4249978011302Q1889.6274629284687 444.7950957283118 1886.257365001287 452.1480366603446L1886.257365001287 452.1480366603446Q1880.6609599585734 464.505062393344 1877.433835882848 469.05980080401986L1877.433835882848 469.05980080401986L1858.9085097013096 457.2950953127675Q1866.8333460391675 447.30735054675637 1868.8962544673211 440.52630502054836L1868.8962544673211 440.52630502054836Q1854.7826928450029 446.5720564535531 1845.9591637265632 459.9503239826682L1845.9591637265632 459.9503239826682Q1838.0139025527835 472.000977176833 1838.0139025527835 486.8498328923546ZM1936.543311042022 437.01323324191054L1936.543311042022 437.01323324191054Q1950.227951109972 435.54264505550395 1956.7026240973453 433.76568433026273L1956.7026240973453 433.76568433026273L1960.072722024527 449.65620667782235Q1947.1438008857028 452.88333075354785 1927.1274616818357 453.4756509952949L1927.1274616818357 453.4756509952949Q1918.1609587119403 471.1227092321735 1913.7491941527207 485.54264339332656L1913.7491941527207 485.54264339332656Q1925.6568734954296 483.47973496517295 1939.198539711923 479.5785913040111Q1952.7197810924943 475.6774476428493 1966.404421160444 467.895585156448L1966.404421160444 467.895585156448L1969.4885713847132 482.7444408719697Q1956.1103038555982 491.99689154477755 1938.892167173088 498.614538383607L1938.892167173088 498.614538383607Q1921.9804030294129 505.08921137098025 1908.9085080391326 505.9674793156397L1908.9085080391326 505.9674793156397L1890.6691295605067 489.05571517196444Q1899.3496848274897 460.23627168558056 1920.223867140094 428.33267797492744L1920.223867140094 428.33267797492744Q1926.6985401274676 418.324508372994 1934.0514810594998 409.0720577001861L1934.0514810594998 409.0720577001861L1947.1438008857028 421.12271089435086Q1941.404421991533 429.0679720681307 1936.543311042022 437.01323324191054Z " fill="#dbb98f" transform="matrix(0.4442777709926132,0,0,0.4442777709926131,0,91.08086081402828)"/></g></svg>